# xmcd
#
# Track frame offsets:
#	150
#	16415
#	30357
#	46765
#	67267
#	89146
#	102023
#	116445
#	128634
#	140555
#	151269
#	166543
#	183234
#	196352
#	218227
#	231400
#	246460
#	264766
#	292116
#
# Disc length: 4440 seconds
#
# Revision: 0
# Processed by: cddbd v1.5.1PL0 Copyright (c) Steve Scherf et al.
# Submitted via: dBpowerAMP V4.0
#
DISCID=0a115613
DTITLE=Various Artist - The Best Line Dancing Album In The World Ever!
DYEAR=2004
DGENRE=Other
TTITLE0=Black Coffee - Lacy J Dalton
TTITLE1=Boogie and Beethoven - Larry Gatlin
TTITLE2=Eat at Joes - Suzy Bogguss
TTITLE3=Lay Down Sally - Asleep at The Wheel
TTITLE4=Tennessee Two Step - Charlie Daniels
TTITLE5=Cowboys Like a Little Rock'n'Roll - Chris Ledoux
TTITLE6=Girls Night Out - Gina Jeffrey's
TTITLE7=Wild Side Of Life - Pirates Of The Mississippi
TTITLE8=Walkin' Shoes - Tanya Tucker
TTITLE9=Two Dollars In The Jukebox - Eddie Rabbitt
TTITLE10=In a Letter To You - Eddy Raven
TTITLE11=That Girl's Been Spyin' On Me - Billy Dean
TTITLE12=San Antonio Stroll - Tanya Tucker
TTITLE13=Strawberry Wine - Deana Carter
TTITLE14=Walkin' The Country - The Ranch
TTITLE15=No Way Out - Suzy Bogguss
TTITLE16=Honky Tonk World - Chris Ledoux
TTITLE17=Hillbilly Twist - Wild Rose
TTITLE18=DATA
EXTD=
EXTT0=
EXTT1=
EXTT2=
EXTT3=
EXTT4=
EXTT5=
EXTT6=
EXTT7=
EXTT8=
EXTT9=
EXTT10=
EXTT11=
EXTT12=
EXTT13=
EXTT14=
EXTT15=
EXTT16=
EXTT17=
EXTT18=
PLAYORDER=
